<svg xmlns="http://www.w3.org/2000/svg" viewBox="0 0 302.86 198.4"><defs><style>.cls-1{fill:#0095da;}.cls-2{fill:#ffd530;}</style></defs><g id="Laag_2" data-name="Laag 2"><g id="Layer_1" data-name="Layer 1"><path class="cls-1" d="M223.35,184.85c0-.75.09-1.38.17-1.89a2.55,2.55,0,0,1,.49-1.23,2,2,0,0,1,1.11-.64,8.58,8.58,0,0,1,2.08-.19,14.14,14.14,0,0,1,1.8.09,1.67,1.67,0,0,1,1.05.48,2.27,2.27,0,0,1,.52,1.19,16.76,16.76,0,0,1,.18,2.19Zm7.42,3.75v.5a2.7,2.7,0,0,1-.17,1.09,1.21,1.21,0,0,1-.6.62,3.12,3.12,0,0,1-1.11.26c-.46,0-1,.05-1.69.05a11.62,11.62,0,0,1-2.1-.15,1.87,1.87,0,0,1-1.16-.64,2.73,2.73,0,0,1-.49-1.41c-.06-.62-.1-1.44-.1-2.47h9.45v-1.33a13.2,13.2,0,0,0-.27-3,3.57,3.57,0,0,0-.93-1.78,3.38,3.38,0,0,0-1.72-.86,13.38,13.38,0,0,0-2.68-.22,12.24,12.24,0,0,0-2.9.28,3.44,3.44,0,0,0-1.8,1,4.38,4.38,0,0,0-.93,2,17.06,17.06,0,0,0-.27,3.35,21.65,21.65,0,0,0,.2,3.17,4.38,4.38,0,0,0,.83,2.07,3.32,3.32,0,0,0,1.78,1.12,11.28,11.28,0,0,0,3.09.34c.73,0,1.44,0,2.11-.08a5.94,5.94,0,0,0,1.8-.44,2.82,2.82,0,0,0,1.23-1.09,3.81,3.81,0,0,0,.46-2v-.47Zm-15.21-14.78h-2V176h2Zm0,5.63h-2v13.12h2Zm-25.78,0h-2v13.12h2v-7.9a3.7,3.7,0,0,1,1-2.9,4.38,4.38,0,0,1,2.95-.87,5,5,0,0,1,1.65.2,1.7,1.7,0,0,1,.85.57,1.82,1.82,0,0,1,.34.91c0,.36.07.76.09,1.19v8.8h2v-8a5.8,5.8,0,0,1,.23-1.75,2.32,2.32,0,0,1,.71-1.11,2.85,2.85,0,0,1,1.25-.59,8.63,8.63,0,0,1,1.81-.17,5,5,0,0,1,1.53.19,1.73,1.73,0,0,1,.88.58,2.34,2.34,0,0,1,.38,1,10.13,10.13,0,0,1,.09,1.45v8.44h2v-8.65a5.1,5.1,0,0,0-1-3.52,4.7,4.7,0,0,0-3.54-1.1,9,9,0,0,0-1.36.1,6.29,6.29,0,0,0-1.31.33,4.08,4.08,0,0,0-1.16.67,3.29,3.29,0,0,0-.85,1.08,2.27,2.27,0,0,0-.59-1.08,3.08,3.08,0,0,0-1-.67,5.4,5.4,0,0,0-1.21-.33,7.67,7.67,0,0,0-1.24-.1,8.19,8.19,0,0,0-1.29.1,4.91,4.91,0,0,0-1.26.35,3.9,3.9,0,0,0-1.09.67,2.78,2.78,0,0,0-.74,1.06h-.05Zm-16,0v13.12h2v-8.18a6.33,6.33,0,0,1,.13-1.52,2.64,2.64,0,0,1,.52-1.09,2.31,2.31,0,0,1,1-.66,4.67,4.67,0,0,1,1.55-.22,2.43,2.43,0,0,1,1.73.48,2.32,2.32,0,0,1,.47,1.69V184h1.88V183a3.94,3.94,0,0,0-.87-2.78,3.67,3.67,0,0,0-2.78-.92,8.29,8.29,0,0,0-1.11.08,4.26,4.26,0,0,0-1.05.29,3.2,3.2,0,0,0-.9.55,2.56,2.56,0,0,0-.67.9l-.05-.05.1-1.62Zm-15,5.4A17,17,0,0,1,159,183a2.55,2.55,0,0,1,.49-1.23,2,2,0,0,1,1.11-.64,8.58,8.58,0,0,1,2.08-.19,14,14,0,0,1,1.8.09,1.64,1.64,0,0,1,1.05.48,2.27,2.27,0,0,1,.52,1.19,18.35,18.35,0,0,1,.19,2.19Zm7.42,3.75v.5a2.89,2.89,0,0,1-.17,1.09,1.23,1.23,0,0,1-.61.62,3.12,3.12,0,0,1-1.11.26c-.46,0-1,.05-1.69.05a11.42,11.42,0,0,1-2.09-.15,1.82,1.82,0,0,1-1.16-.64,2.56,2.56,0,0,1-.49-1.41,23.2,23.2,0,0,1-.1-2.47h9.44v-1.33a13.2,13.2,0,0,0-.27-3,3.64,3.64,0,0,0-.92-1.78,3.46,3.46,0,0,0-1.73-.86,13.38,13.38,0,0,0-2.68-.22,12.24,12.24,0,0,0-2.9.28,3.44,3.44,0,0,0-1.8,1,4.38,4.38,0,0,0-.93,2,17.06,17.06,0,0,0-.27,3.35,20.2,20.2,0,0,0,.21,3.17,4.28,4.28,0,0,0,.82,2.07,3.35,3.35,0,0,0,1.79,1.12,11.15,11.15,0,0,0,3.08.34c.73,0,1.44,0,2.12-.08a6,6,0,0,0,1.79-.44,2.77,2.77,0,0,0,1.23-1.09,3.81,3.81,0,0,0,.46-2v-.47Zm-24.33-14.78h-2v18.75h2v-7.65a9.35,9.35,0,0,1,.17-1.9,2.52,2.52,0,0,1,.59-1.25,2.27,2.27,0,0,1,1.2-.67,7.75,7.75,0,0,1,2-.2,9.8,9.8,0,0,1,1.43.1,2.11,2.11,0,0,1,1,.4,1.74,1.74,0,0,1,.56.85,5.18,5.18,0,0,1,.17,1.45v8.87h2v-8.72a6.62,6.62,0,0,0-.26-2.25,3.09,3.09,0,0,0-.92-1.39,3.53,3.53,0,0,0-1.55-.71,10.22,10.22,0,0,0-2.21-.2c-.38,0-.78,0-1.19,0a5,5,0,0,0-1.17.23,3.79,3.79,0,0,0-1,.53,2,2,0,0,0-.68.94h0ZM135,179.45h-5.08v-3.18h-2v3.18h-1.75v1.6h1.75v7.72a9.94,9.94,0,0,0,.16,1.91,2.49,2.49,0,0,0,.58,1.21,2.13,2.13,0,0,0,1.14.64,7.59,7.59,0,0,0,1.89.19,3.84,3.84,0,0,0,2.9-.93,4.11,4.11,0,0,0,.88-2.9v-1h-1.87v1c0,.32,0,.61,0,.88a1.55,1.55,0,0,1-.2.7,1.22,1.22,0,0,1-.55.47,2.55,2.55,0,0,1-1.07.18,4.33,4.33,0,0,1-.9-.08,1.16,1.16,0,0,1-.57-.26,1,1,0,0,1-.3-.53,3.67,3.67,0,0,1-.09-.88v-8.32H135ZM112.69,186c0-1.15,0-2.06.1-2.74a3.19,3.19,0,0,1,.47-1.54,1.79,1.79,0,0,1,1.13-.68,10.05,10.05,0,0,1,2.07-.16,10.18,10.18,0,0,1,2.07.16,1.77,1.77,0,0,1,1.13.68,3.29,3.29,0,0,1,.48,1.54c.06.68.1,1.59.1,2.74s0,2-.1,2.71a3.22,3.22,0,0,1-.48,1.54,1.78,1.78,0,0,1-1.13.69,11,11,0,0,1-2.07.16,10.81,10.81,0,0,1-2.07-.16,1.8,1.8,0,0,1-1.13-.69,3.12,3.12,0,0,1-.47-1.54C112.72,188.06,112.69,187.16,112.69,186Zm-2.06,0a20.46,20.46,0,0,0,.23,3.38,4.17,4.17,0,0,0,.86,2,3.25,3.25,0,0,0,1.78,1,16.42,16.42,0,0,0,5.93,0,3.22,3.22,0,0,0,1.77-1,4.17,4.17,0,0,0,.86-2,20.62,20.62,0,0,0,.22-3.38,20.92,20.92,0,0,0-.22-3.39,4.21,4.21,0,0,0-.86-2,3.27,3.27,0,0,0-1.77-1,16.42,16.42,0,0,0-5.93,0,3.3,3.3,0,0,0-1.78,1,4.21,4.21,0,0,0-.86,2A20.76,20.76,0,0,0,110.63,186Zm-14.82-1.17c0-.75.09-1.38.17-1.89a2.55,2.55,0,0,1,.49-1.23,2,2,0,0,1,1.11-.64,8.58,8.58,0,0,1,2.08-.19,14.14,14.14,0,0,1,1.8.09,1.67,1.67,0,0,1,1.05.48,2.27,2.27,0,0,1,.52,1.19,16.76,16.76,0,0,1,.18,2.19Zm7.42,3.75v.5a2.7,2.7,0,0,1-.17,1.09,1.21,1.21,0,0,1-.6.62,3.12,3.12,0,0,1-1.11.26c-.46,0-1,.05-1.69.05a11.62,11.62,0,0,1-2.1-.15,1.87,1.87,0,0,1-1.16-.64,2.73,2.73,0,0,1-.49-1.41c-.06-.62-.1-1.44-.1-2.47h9.45v-1.33a13.2,13.2,0,0,0-.27-3,3.57,3.57,0,0,0-.93-1.78,3.38,3.38,0,0,0-1.72-.86,13.38,13.38,0,0,0-2.68-.22,12.24,12.24,0,0,0-2.9.28,3.44,3.44,0,0,0-1.8,1,4.38,4.38,0,0,0-.93,2,17.06,17.06,0,0,0-.27,3.35,21.65,21.65,0,0,0,.2,3.17,4.38,4.38,0,0,0,.83,2.07,3.36,3.36,0,0,0,1.78,1.12,11.28,11.28,0,0,0,3.09.34c.73,0,1.44,0,2.11-.08a5.94,5.94,0,0,0,1.8-.44,2.82,2.82,0,0,0,1.23-1.09,3.81,3.81,0,0,0,.46-2v-.47Zm-15.14-9.15h-2v1.65l0,0a2.86,2.86,0,0,0-.73-1,3.41,3.41,0,0,0-1-.55,4.49,4.49,0,0,0-1.19-.26c-.42,0-.86-.06-1.31-.06a7,7,0,0,0-2.71.43A3.38,3.38,0,0,0,77.57,181a5.17,5.17,0,0,0-.73,2.1,20.87,20.87,0,0,0-.17,2.9,18,18,0,0,0,.21,2.95,5.1,5.1,0,0,0,.79,2.09,3.43,3.43,0,0,0,1.57,1.25,6.78,6.78,0,0,0,2.6.41c.38,0,.79,0,1.24-.05a5,5,0,0,0,1.25-.24,3.43,3.43,0,0,0,1.06-.54,1.8,1.8,0,0,0,.67-.94h0v3a3.59,3.59,0,0,1-.27,1.53,1.92,1.92,0,0,1-.76.85,2.83,2.83,0,0,1-1.19.37,14.92,14.92,0,0,1-1.58.07q-.77,0-1.38-.06a2.28,2.28,0,0,1-1-.33,1.67,1.67,0,0,1-.63-.8,3.94,3.94,0,0,1-.23-1.49h-2a4.92,4.92,0,0,0,.32,2.28,2.87,2.87,0,0,0,1.1,1.29,4.38,4.38,0,0,0,1.7.57,14.29,14.29,0,0,0,2.13.14,14.62,14.62,0,0,0,2.26-.17,5.29,5.29,0,0,0,1.83-.65,3.44,3.44,0,0,0,1.24-1.3,4.5,4.5,0,0,0,.45-2.16Zm-5.78,11.67a5.18,5.18,0,0,1-2.17-.35,2,2,0,0,1-1.06-1,4,4,0,0,1-.34-1.61q0-.94,0-2.13c0-.87,0-1.62.05-2.26a4,4,0,0,1,.39-1.6,2.13,2.13,0,0,1,1.07-.95,5.64,5.64,0,0,1,2.09-.31,6.16,6.16,0,0,1,2.09.28,2.2,2.2,0,0,1,1.14.92,3.73,3.73,0,0,1,.47,1.59,22.09,22.09,0,0,1,.1,2.33c0,.73,0,1.41,0,2a4,4,0,0,1-.42,1.61,2.36,2.36,0,0,1-1.12,1.06A5.06,5.06,0,0,1,82.31,191.12Z"/><path class="cls-1" d="M68.79,33.9a11.71,11.71,0,0,0-1.91-6.17,9.24,9.24,0,0,0-4.26-3.19,18.86,18.86,0,0,0-5.81-1.14c-2.13-.09-4.23-.14-6.32-.14a43.42,43.42,0,0,0-11.91,1.28,11.76,11.76,0,0,0-6.31,4,14.16,14.16,0,0,0-2.48,7.23q-.43,4.47-.57,10.86V64a39.33,39.33,0,0,0,1.27,11.21,12.91,12.91,0,0,0,3.83,6.24,13.32,13.32,0,0,0,6.6,2.76,61.77,61.77,0,0,0,9.57.64,46.13,46.13,0,0,0,8.94-.71A10.64,10.64,0,0,0,65,81.35a11.53,11.53,0,0,0,2.91-5.54,38.74,38.74,0,0,0,.85-9H49.22V47.09H97.59V65.67q0,13.49-2,21.78t-7.3,12.9Q83,105,73.83,106.52a143.2,143.2,0,0,1-23.34,1.56,151.07,151.07,0,0,1-22-1.41,37.31,37.31,0,0,1-15.75-5.75,26.36,26.36,0,0,1-9.5-12.2Q0,80.86,0,67.94V40.42Q0,27.24,3.47,19.29A27.46,27.46,0,0,1,13.54,7,38.85,38.85,0,0,1,29.43,1.35,147.52,147.52,0,0,1,50.49,0q10.36,0,19,.57A37.88,37.88,0,0,1,84.39,4.33,22,22,0,0,1,94.11,14.4q3.48,6.88,3.48,19.5Z"/><polygon class="cls-1" points="140.72 43.55 186.11 43.55 186.11 63.26 140.72 63.26 140.72 83.97 190.09 83.97 190.09 107.23 112.35 107.23 112.35 0.85 190.02 0.85 190.02 24.11 140.72 24.11 140.72 43.55"/><polygon class="cls-2" points="27.09 123.49 37.55 123.49 26.48 161.4 10.72 161.4 0 123.49 10.26 123.49 18.45 152.71 18.75 152.71 27.09 123.49"/><path class="cls-2" d="M49.63,154.88l-1.87,6.52H37.25l11.37-37.91H64L75.51,161.4H65.2l-2-6.52Zm6.88-23.81h-.1l-4.6,16.43h9.4Z"/><polygon class="cls-2" points="91.17 161.4 81.06 161.4 81.06 123.49 98.14 123.49 109.01 152.6 109.41 152.6 108.81 123.49 118.92 123.49 118.92 161.4 101.68 161.4 90.97 132.28 90.56 132.28 91.17 161.4"/><path class="cls-2" d="M127.36,123.49h19.2a26.36,26.36,0,0,1,6.83.78,11.23,11.23,0,0,1,4.75,2.53,10.59,10.59,0,0,1,2.78,4.55,22.59,22.59,0,0,1,.91,6.85v7.93a29.57,29.57,0,0,1-.68,6.75,11.29,11.29,0,0,1-2.3,4.75,9.63,9.63,0,0,1-4.3,2.83,20.09,20.09,0,0,1-6.62.94H127.36Zm10.11,29.11h8.84c1.89,0,3.21-.57,4-1.72a8.49,8.49,0,0,0,1.14-4.75V138.2a11.68,11.68,0,0,0-.31-3,4,4,0,0,0-.93-1.82,3.14,3.14,0,0,0-1.59-.89,10.14,10.14,0,0,0-2.28-.23h-8.84Z"/><path class="cls-2" d="M177.45,154.88l-1.87,6.52H165.07l11.37-37.91H191.8l11.53,37.91H193l-2-6.52Zm6.87-23.81h-.1l-4.6,16.43H189Z"/><polygon class="cls-2" points="218.61 138.7 234.79 138.7 234.79 145.73 218.61 145.73 218.61 153.11 236.2 153.11 236.2 161.4 208.5 161.4 208.5 123.49 235.85 123.49 235.85 131.78 218.61 131.78 218.61 138.7"/><polygon class="cls-2" points="253.87 152.6 269.69 152.6 269.69 161.4 243.76 161.4 243.76 123.49 253.87 123.49 253.87 152.6"/><polygon class="cls-2" points="285.27 138.7 301.45 138.7 301.45 145.73 285.27 145.73 285.27 153.11 302.86 153.11 302.86 161.4 275.16 161.4 275.16 123.49 302.51 123.49 302.51 131.78 285.27 131.78 285.27 138.7"/><path class="cls-2" d="M299.24,19.08A28.33,28.33,0,0,0,289.1,7.23a40.17,40.17,0,0,0-15.6-5.74,133.1,133.1,0,0,0-39.72,0,40.17,40.17,0,0,0-15.6,5.74A28.33,28.33,0,0,0,208,19.08q-3.61,7.59-3.62,19.93V69.08q0,12.33,3.62,19.93a28.3,28.3,0,0,0,10.14,11.84,40,40,0,0,0,15.6,5.74,122.23,122.23,0,0,0,19.86,1.49,122.15,122.15,0,0,0,19.86-1.49,40,40,0,0,0,15.6-5.74A28.3,28.3,0,0,0,299.24,89q3.63-7.59,3.62-19.93V39Q302.86,26.67,299.24,19.08ZM277.16,82.43l-.86,1.43c-3.54,5.28-10.35,11.89-22.58,12.59a27.1,27.1,0,0,1-25.07-17.39,32.78,32.78,0,0,1,1.48-28.72l23.59-38.71,21,34.45s.7,1.17,1.63,2.91a32.66,32.66,0,0,1,2.34,4.62A33,33,0,0,1,277.16,82.43Z"/><path class="cls-2" d="M233.13,62.8c-.48,8.27,7.26,9.72,7.26,9.72,8.06-.09,8.3-7.85,8.3-7.85,1.26-14.07,5-39.65,5-39.65L237.31,52.31C233.05,58.87,233.13,62.8,233.13,62.8Z"/></g></g></svg>